<svg width="48" height="48" viewBox="0 0 48 48" fill="none" xmlns="http://www.w3.org/2000/svg">
<g id="Phone" clip-path="url(#clip0_1_158)">
<path id="Vector" d="M30.8231 27.2513C31.0309 27.113 31.2698 27.0288 31.5183 27.0062C31.7668 26.9836 32.017 27.0234 32.2462 27.1219L41.0887 31.0838C41.3867 31.2111 41.6355 31.4316 41.7977 31.7121C41.96 31.9927 42.027 32.3182 41.9887 32.64C41.6974 34.817 40.6254 36.8141 38.972 38.2598C37.3186 39.7056 35.1964 40.5017 33 40.5C26.237 40.5 19.751 37.8134 14.9688 33.0312C10.1866 28.2491 7.5 21.763 7.5 15C7.49832 12.8037 8.29439 10.6814 9.74018 9.02802C11.186 7.37461 13.183 6.30257 15.36 6.01127C15.6818 5.97304 16.0073 6.04006 16.2879 6.2023C16.5684 6.36454 16.7889 6.61327 16.9162 6.91127L20.8781 15.7613C20.9755 15.9886 21.0151 16.2364 20.9935 16.4827C20.9719 16.7291 20.8898 16.9662 20.7544 17.1731L16.7475 21.9375C16.6054 22.152 16.5213 22.3997 16.5036 22.6563C16.4858 22.913 16.535 23.1699 16.6462 23.4019C18.1969 26.5763 21.4781 29.8181 24.6619 31.3538C24.8951 31.4645 25.1532 31.5126 25.4106 31.4932C25.6681 31.4738 25.916 31.3876 26.13 31.2431L30.8231 27.2513Z" stroke="white" stroke-width="2" stroke-linecap="round" stroke-linejoin="round"/>
</g>
<defs>
<clipPath id="clip0_1_158">
<rect width="48" height="48" fill="white"/>
</clipPath>
</defs>
</svg>
