<svg width="181" height="34" viewBox="0 0 181 34" fill="none" xmlns="http://www.w3.org/2000/svg">
<g id="reviw star">
<path id="Star 1" d="M15.18 6.23692C15.7787 4.3943 18.3855 4.39429 18.9842 6.23692L20.3993 10.5921C20.6671 11.4161 21.435 11.9741 22.3014 11.9741H26.8807C28.8182 11.9741 29.6237 14.4533 28.0563 15.5921L24.3516 18.2837C23.6506 18.793 23.3573 19.6958 23.625 20.5198L25.0401 24.875C25.6388 26.7176 23.5299 28.2498 21.9624 27.111L18.2577 24.4194C17.5567 23.9101 16.6075 23.9101 15.9066 24.4194L12.2018 27.111C10.6344 28.2498 8.52544 26.7176 9.12414 24.875L10.5392 20.5198C10.807 19.6958 10.5137 18.793 9.81268 18.2837L6.10795 15.5921C4.54053 14.4533 5.34608 11.9741 7.28352 11.9741H11.8628C12.7293 11.9741 13.4972 11.4161 13.7649 10.5921L15.18 6.23692Z" fill="#FFE515"/>
<path id="Star 2" d="M51.8672 6.23692C52.4659 4.3943 55.0727 4.39429 55.6714 6.23692L57.0865 10.5921C57.3543 11.4161 58.1222 11.9741 58.9886 11.9741H63.5679C65.5054 11.9741 66.3109 14.4533 64.7435 15.5921L61.0388 18.2837C60.3378 18.793 60.0445 19.6958 60.3122 20.5198L61.7273 24.875C62.326 26.7176 60.2171 28.2498 58.6496 27.111L54.9449 24.4194C54.2439 23.9101 53.2947 23.9101 52.5938 24.4194L48.889 27.111C47.3216 28.2498 45.2126 26.7176 45.8113 24.875L47.2264 20.5198C47.4942 19.6958 47.2009 18.793 46.4999 18.2837L42.7951 15.5921C41.2277 14.4533 42.0333 11.9741 43.9707 11.9741H48.55C49.4165 11.9741 50.1844 11.4161 50.4521 10.5921L51.8672 6.23692Z" fill="#FFE515"/>
<path id="Star 3" d="M88.5544 6.23692C89.1531 4.3943 91.7599 4.39429 92.3586 6.23692L93.7737 10.5921C94.0415 11.4161 94.8094 11.9741 95.6758 11.9741H100.255C102.193 11.9741 102.998 14.4533 101.431 15.5921L97.726 18.2837C97.025 18.793 96.7317 19.6958 96.9994 20.5198L98.4145 24.875C99.0132 26.7176 96.9042 28.2498 95.3368 27.111L91.6321 24.4194C90.9311 23.9101 89.9819 23.9101 89.2809 24.4194L85.5762 27.111C84.0088 28.2498 81.8998 26.7176 82.4985 24.875L83.9136 20.5198C84.1814 19.6958 83.888 18.793 83.1871 18.2837L79.4823 15.5921C77.9149 14.4533 78.7205 11.9741 80.6579 11.9741H85.2372C86.1037 11.9741 86.8716 11.4161 87.1393 10.5921L88.5544 6.23692Z" fill="#FFE515"/>
<path id="Star 4" d="M125.242 6.23692C125.84 4.3943 128.447 4.39429 129.046 6.23692L130.461 10.5921C130.729 11.4161 131.497 11.9741 132.363 11.9741H136.942C138.88 11.9741 139.685 14.4533 138.118 15.5921L134.413 18.2837C133.712 18.793 133.419 19.6958 133.687 20.5198L135.102 24.875C135.7 26.7176 133.591 28.2498 132.024 27.111L128.319 24.4194C127.618 23.9101 126.669 23.9101 125.968 24.4194L122.263 27.111C120.696 28.2498 118.587 26.7176 119.186 24.875L120.601 20.5198C120.869 19.6958 120.575 18.793 119.874 18.2837L116.17 15.5921C114.602 14.4533 115.408 11.9741 117.345 11.9741H121.924C122.791 11.9741 123.559 11.4161 123.827 10.5921L125.242 6.23692Z" fill="#3D3D3D"/>
<path id="Star 5" d="M161.929 6.23692C162.527 4.3943 165.134 4.39429 165.733 6.23692L167.148 10.5921C167.416 11.4161 168.184 11.9741 169.05 11.9741H173.629C175.567 11.9741 176.372 14.4533 174.805 15.5921L171.1 18.2837C170.399 18.793 170.106 19.6958 170.374 20.5198L171.789 24.875C172.388 26.7176 170.279 28.2498 168.711 27.111L165.006 24.4194C164.305 23.9101 163.356 23.9101 162.655 24.4194L158.951 27.111C157.383 28.2498 155.274 26.7176 155.873 24.875L157.288 20.5198C157.556 19.6958 157.262 18.793 156.561 18.2837L152.857 15.5921C151.289 14.4533 152.095 11.9741 154.032 11.9741H158.612C159.478 11.9741 160.246 11.4161 160.514 10.5921L161.929 6.23692Z" fill="#3D3D3D"/>
</g>
</svg>
